<?xml version="1.0" encoding="UTF-8" standalone="no"?>
<!-- Generator: Adobe Illustrator 16.0.0, SVG Export Plug-In . SVG Version: 6.00 Build 0)  -->

<svg
   xmlns:dc="http://purl.org/dc/elements/1.1/"
   xmlns:cc="http://creativecommons.org/ns#"
   xmlns:rdf="http://www.w3.org/1999/02/22-rdf-syntax-ns#"
   xmlns:svg="http://www.w3.org/2000/svg"
   xmlns="http://www.w3.org/2000/svg"
   xmlns:sodipodi="http://sodipodi.sourceforge.net/DTD/sodipodi-0.dtd"
   xmlns:inkscape="http://www.inkscape.org/namespaces/inkscape"
   version="1.1"
   id="Capa_1"
   x="0px"
   y="0px"
   width="494px"
   height="80px"
   viewBox="0 0 494 80"
   enable-background="new 0 0 494 80"
   xml:space="preserve"
   sodipodi:docname="logo.svg"
   inkscape:version="0.92.3 (2405546, 2018-03-11)"><metadata
   id="metadata33"><rdf:RDF><cc:Work
       rdf:about=""><dc:format>image/svg+xml</dc:format><dc:type
         rdf:resource="http://purl.org/dc/dcmitype/StillImage" /></cc:Work></rdf:RDF></metadata><defs
   id="defs31">
	
	
	
	
	
	
	
	
	
	
</defs><sodipodi:namedview
   pagecolor="#ffffff"
   bordercolor="#666666"
   borderopacity="1"
   objecttolerance="10"
   gridtolerance="10"
   guidetolerance="10"
   inkscape:pageopacity="0"
   inkscape:pageshadow="2"
   inkscape:window-width="1360"
   inkscape:window-height="703"
   id="namedview29"
   showgrid="false"
   showguides="true"
   inkscape:guide-bbox="true"
   inkscape:zoom="1.4696356"
   inkscape:cx="274.95853"
   inkscape:cy="43.996117"
   inkscape:window-x="0"
   inkscape:window-y="0"
   inkscape:window-maximized="1"
   inkscape:current-layer="Capa_1"><sodipodi:guide
     position="15.650138,71.446281"
     orientation="0,1"
     id="guide890"
     inkscape:locked="false" /></sodipodi:namedview>
<rect
   x="35"
   y="14"
   fill="none"
   width="585"
   height="71"
   id="rect2" />

<rect
   x="5"
   y="9.175"
   fill="#FE4918"
   width="18"
   height="58.825"
   id="rect26" />
<g
   id="g902"
   transform="translate(-1.8585,-85.939485)"
   style="fill:#ffffff"><path
     d="m 66.892457,97.939485 h 9.515441 v 33.445385 q 0,5.03162 -1.317522,8.65733 -1.317523,3.62572 -3.659785,5.99353 -2.342264,2.36782 -5.709266,3.47774 -3.367002,1.1099 -7.392767,1.1099 -19.470058,0 -19.470058,-17.98059 V 97.939485 h 10.027811 v 32.705455 q 0,3.03375 0.512371,5.17959 0.585566,2.07184 1.756697,3.40374 1.171131,1.2579 2.927828,1.84985 1.756697,0.51796 4.09896,0.51796 4.61133,0 6.66081,-2.5898 2.04948,-2.58979 2.04948,-8.36134 z"
     style="font-style:normal;font-variant:normal;font-weight:bold;font-stretch:normal;font-size:medium;line-height:1.25;font-family:'PT Sans';-inkscape-font-specification:'PT Sans Bold';letter-spacing:0px;word-spacing:0px;fill:#ffffff;fill-opacity:1;stroke:none;stroke-width:1.83984733"
     id="path857"
     inkscape:connector-curvature="0" /><path
     d="m 84.968367,98.457445 q 3.07422,-0.591954 6.734005,-0.88793 3.732982,-0.369972 7.392767,-0.369972 3.806181,0 7.612351,0.665948 3.87938,0.591954 6.95359,2.515799 3.07422,1.84986 4.97732,5.25359 1.97628,3.32975 1.97628,8.73132 0,4.88363 -1.6835,8.28736 -1.68351,3.32974 -4.46495,5.47557 -2.78142,2.14584 -6.36801,3.10776 -3.5134,0.96193 -7.31958,0.96193 -0.36598,0 -1.171135,0 -0.805148,0 -1.683497,0 -0.878349,-0.074 -1.756697,-0.14799 -0.805153,-0.074 -1.171132,-0.14799 v 17.83261 H 84.968367 Z m 14.931925,7.473425 q -1.463914,0 -2.781437,0.14798 -1.317523,0.074 -2.122676,0.22199 v 16.79669 q 0.292783,0.074 0.878349,0.14799 0.585566,0.074 1.244327,0.14798 0.658761,0 1.244327,0 0.658761,0 0.951545,0 1.976283,0 3.879363,-0.36998 1.97629,-0.36996 3.5134,-1.33189 1.53711,-1.03592 2.41546,-2.81177 0.95155,-1.77587 0.95155,-4.66165 0,-2.44181 -0.87836,-3.99568 -0.87834,-1.62787 -2.34225,-2.5898 -1.39072,-0.96192 -3.22061,-1.33189 -1.8299,-0.36997 -3.732988,-0.36997 z"
     style="font-style:normal;font-variant:normal;font-weight:bold;font-stretch:normal;font-size:medium;line-height:1.25;font-family:'PT Sans';-inkscape-font-specification:'PT Sans Bold';letter-spacing:0px;word-spacing:0px;fill:#ffffff;fill-opacity:1;stroke:none;stroke-width:1.83984733"
     id="path859"
     inkscape:connector-curvature="0" /><path
     d="m 126.85576,97.939485 h 30.37621 v 9.027295 h -20.3484 v 12.06106 h 18.51852 v 9.0273 h -18.51852 v 12.65301 h 20.71438 v 9.0273 h -30.74219 z"
     style="font-style:normal;font-variant:normal;font-weight:bold;font-stretch:normal;font-size:medium;line-height:1.25;font-family:'PT Sans';-inkscape-font-specification:'PT Sans Bold';letter-spacing:0px;word-spacing:0px;fill:#ffffff;fill-opacity:1;stroke:none;stroke-width:1.83984733"
     id="path861"
     inkscape:connector-curvature="0" /><path
     d="m 178.3478,126.87123 0.95155,9.17529 h 0.29278 l 1.02474,-9.32328 8.92987,-28.783755 h 6.58762 l 8.78349,28.931745 1.02473,9.17529 h 0.29279 l 1.09793,-9.32328 6.22163,-28.783755 h 10.17421 l -14.12678,52.165935 h -6.73399 l -9.14947,-28.78375 -1.24432,-7.91739 h -0.36598 l -1.24433,7.99138 -9.07627,28.70976 h -7.09999 L 160.63443,97.939485 h 10.90617 z"
     style="font-style:normal;font-variant:normal;font-weight:bold;font-stretch:normal;font-size:medium;line-height:1.25;font-family:'PT Sans';-inkscape-font-specification:'PT Sans Bold';letter-spacing:0px;word-spacing:0px;fill:#ffffff;fill-opacity:1;stroke:none;stroke-width:1.83984733"
     id="path863"
     inkscape:connector-curvature="0" /><path
     style="font-style:normal;font-variant:normal;font-weight:bold;font-stretch:normal;font-size:medium;line-height:1.25;font-family:'PT Sans';-inkscape-font-specification:'PT Sans Bold';letter-spacing:0px;word-spacing:0px;fill:#ffffff;fill-opacity:1;stroke:none;stroke-width:1.83984733"
     d="m 228.07171,97.939485 h 30.37622 v 9.027295 h -20.34841 v 12.06106 h 18.51851 v 9.0273 h -18.51851 v 12.65301 h 20.71439 v 9.0273 h -30.7422 z"
     id="path865"
     inkscape:connector-curvature="0" /><path
     d="m 300.7173,110.00054 q 0,1.92385 -0.51238,3.8477 -0.43917,1.92385 -1.5371,3.55173 -1.09794,1.55388 -2.85463,2.81178 -1.7567,1.18391 -4.24536,1.77586 v 0.44396 q 2.19587,0.36997 4.17215,1.25791 1.97629,0.88793 3.44021,2.44181 1.46391,1.55388 2.26907,3.77371 0.87834,2.21982 0.87834,5.25358 0,3.99569 -1.6835,6.95546 -1.6835,2.88578 -4.53814,4.73564 -2.78143,1.84984 -6.36802,2.73778 -3.58659,0.88793 -7.39277,0.88793 -1.24432,0 -3.22061,0 -1.90309,0 -4.17215,-0.14799 -2.19588,-0.074 -4.53814,-0.29598 -2.26906,-0.22198 -4.17215,-0.66594 V 98.309457 q 1.39071,-0.221983 3.14742,-0.443966 1.82988,-0.221982 3.87936,-0.369971 2.04948,-0.147988 4.17216,-0.221983 2.19587,-0.07399 4.31855,-0.07399 3.58658,0 6.95359,0.591954 3.44019,0.51796 6.07524,1.92385 2.70825,1.405879 4.31855,3.921689 1.61031,2.51581 1.61031,6.3635 z m -18.29893,32.1135 q 1.82989,0 3.51339,-0.44397 1.7567,-0.44396 3.07423,-1.33189 1.31752,-0.96193 2.12267,-2.36782 0.80515,-1.40588 0.80515,-3.32973 0,-2.44181 -0.95155,-3.84771 -0.95154,-1.40589 -2.48865,-2.14583 -1.53711,-0.81393 -3.44019,-1.03591 -1.90309,-0.22199 -3.80619,-0.22199 h -5.34328 v 14.28088 q 0.36598,0.14799 1.17113,0.22199 0.80516,0.074 1.6835,0.14798 0.95154,0 1.90309,0.074 1.02474,0 1.7567,0 z m -3.29381,-22.42025 q 1.02475,0 2.34227,-0.074 1.39071,-0.074 2.26906,-0.22199 2.78143,-0.88793 4.75772,-2.66379 2.04948,-1.77586 2.04948,-4.66164 0,-1.92384 -0.73195,-3.18175 -0.73196,-1.2579 -1.97629,-1.99784 -1.17113,-0.73994 -2.70824,-1.03592 -1.53711,-0.29598 -3.22061,-0.29598 -1.90309,0 -3.5134,0.074 -1.6103,0.074 -2.48865,0.22199 v 13.83692 z"
     style="font-style:normal;font-variant:normal;font-weight:bold;font-stretch:normal;font-size:medium;line-height:1.25;font-family:'PT Sans';-inkscape-font-specification:'PT Sans Bold';letter-spacing:0px;word-spacing:0px;fill:#ffffff;fill-opacity:1;stroke:none;stroke-width:1.83984733"
     id="path867"
     inkscape:connector-curvature="0" /><path
     d="m 344.25388,147.58962 q -2.34226,1.70186 -6.00205,2.4418 -3.58659,0.73994 -7.39276,0.73994 -4.61133,0 -8.78348,-1.40588 -4.09896,-1.47989 -7.24638,-4.66164 -3.14742,-3.25575 -5.05051,-8.36135 -1.82988,-5.1796 -1.82988,-12.50502 0,-7.62141 2.04947,-12.72701 2.12268,-5.17959 5.41648,-8.28736 3.36701,-3.181747 7.46597,-4.513643 4.09896,-1.40589 8.19791,-1.40589 4.39175,0 7.39278,0.591953 3.07422,0.591954 5.05049,1.405891 l -1.97627,8.583329 q -1.68351,-0.81393 -4.02577,-1.1839 -2.26906,-0.36997 -5.56287,-0.36997 -6.07525,0 -9.80823,4.36566 -3.65979,4.36566 -3.65979,13.54094 0,3.99569 0.87835,7.32542 0.87835,3.25575 2.63505,5.62357 1.82989,2.29382 4.46494,3.62572 2.70824,1.25789 6.22163,1.25789 3.29381,0 5.56287,-0.66594 2.26908,-0.66595 3.95257,-1.70187 z"
     style="font-style:normal;font-variant:normal;font-weight:bold;font-stretch:normal;font-size:medium;line-height:1.25;font-family:'PT Sans';-inkscape-font-specification:'PT Sans Bold';letter-spacing:0px;word-spacing:0px;fill:#ffffff;fill-opacity:1;stroke:none;stroke-width:1.83984733"
     id="path869"
     inkscape:connector-curvature="0" /><path
     d="m 346.40514,123.83747 q 0,-12.94899 5.63607,-19.90445 5.63607,-7.029453 16.10306,-7.029453 5.48968,0 9.58864,1.92385 4.09895,1.923843 6.8072,5.475573 2.70824,3.55172 4.02576,8.50934 1.31752,4.95761 1.31752,11.02514 0,12.94899 -5.70926,19.97844 -5.63607,6.95545 -16.02986,6.95545 -5.56288,0 -9.66184,-1.92385 -4.09895,-1.92384 -6.8072,-5.47557 -2.63504,-3.55172 -3.95257,-8.50933 -1.31752,-4.95761 -1.31752,-11.02514 z m 10.54018,0 q 0,3.92169 0.65877,7.25143 0.65876,3.25575 1.97628,5.62356 1.39072,2.36782 3.5134,3.69972 2.12267,1.33189 5.0505,1.33189 5.34328,0 8.27112,-4.21767 2.92782,-4.21767 2.92782,-13.68893 0,-3.77371 -0.65876,-7.02945 -0.58556,-3.25575 -1.90308,-5.69756 -1.31753,-2.44181 -3.44021,-3.77371 -2.12267,-1.40588 -5.19689,-1.40588 -5.34329,0 -8.27111,4.36566 -2.92784,4.29166 -2.92784,13.54094 z"
     style="font-style:normal;font-variant:normal;font-weight:bold;font-stretch:normal;font-size:medium;line-height:1.25;font-family:'PT Sans';-inkscape-font-specification:'PT Sans Bold';letter-spacing:0px;word-spacing:0px;fill:#ffffff;fill-opacity:1;stroke:none;stroke-width:1.83984733"
     id="path871"
     inkscape:connector-curvature="0" /><path
     d="m 409.78691,122.72755 -4.02576,-8.13936 h -0.36598 l 1.17113,8.13936 v 27.0079 h -9.51545 V 97.569515 h 7.31957 l 19.39687,27.599845 3.87937,7.91738 h 0.36598 l -1.17114,-7.91738 V 97.939485 h 9.51545 v 52.165935 h -7.31957 z"
     style="font-style:normal;font-variant:normal;font-weight:bold;font-stretch:normal;font-size:medium;line-height:1.25;font-family:'PT Sans';-inkscape-font-specification:'PT Sans Bold';letter-spacing:0px;word-spacing:0px;fill:#ffffff;fill-opacity:1;stroke:none;stroke-width:1.83984733"
     id="path873"
     inkscape:connector-curvature="0" /><path
     d="m 445.08554,97.939485 h 30.37622 v 9.027295 h -20.3484 v 12.801 h 18.73809 v 9.0273 h -18.73809 v 20.94037 h -10.02782 z"
     style="font-style:normal;font-variant:normal;font-weight:bold;font-stretch:normal;font-size:medium;line-height:1.25;font-family:'PT Sans';-inkscape-font-specification:'PT Sans Bold';letter-spacing:0px;word-spacing:0px;fill:#ffffff;fill-opacity:1;stroke:none;stroke-width:1.83984733"
     id="path875"
     inkscape:connector-curvature="0" /></g></svg>